<svg width="29" height="28" viewBox="0 0 29 28" fill="none" xmlns="http://www.w3.org/2000/svg">
<path d="M7.75 11.8325V16.16C7.75 17.75 7.75 17.75 9.25 18.7625L13.375 21.1475C13.9975 21.5075 15.01 21.5075 15.625 21.1475L19.75 18.7625C21.25 17.75 21.25 17.75 21.25 16.1675V11.8325C21.25 10.25 21.25 10.25 19.75 9.23752L15.625 6.85252C15.01 6.49252 13.9975 6.49252 13.375 6.85252L9.25 9.23752C7.75 10.25 7.75 10.25 7.75 11.8325Z" stroke="#C5C5C5" stroke-width="1.5" stroke-linecap="round" stroke-linejoin="round"/>
<path d="M14.5 16.25C15.7426 16.25 16.75 15.2426 16.75 14C16.75 12.7574 15.7426 11.75 14.5 11.75C13.2574 11.75 12.25 12.7574 12.25 14C12.25 15.2426 13.2574 16.25 14.5 16.25Z" stroke="#C5C5C5" stroke-width="1.5" stroke-linecap="round" stroke-linejoin="round"/>
</svg>
