<svg width="29" height="28" viewBox="0 0 29 28" fill="none" xmlns="http://www.w3.org/2000/svg">
<path d="M7.75 21.5H21.25" stroke="#C5C5C5" stroke-width="1.5" stroke-linecap="round" stroke-linejoin="round"/>
<path d="M9.69998 11.2849H8.5C8.0875 11.2849 7.75 11.6224 7.75 12.0349V18.4999C7.75 18.9124 8.0875 19.2499 8.5 19.2499H9.69998C10.1125 19.2499 10.45 18.9124 10.45 18.4999V12.0349C10.45 11.6224 10.1125 11.2849 9.69998 11.2849Z" stroke="#C5C5C5" stroke-width="1.5" stroke-linecap="round" stroke-linejoin="round"/>
<path d="M15.0999 8.89258H13.8999C13.4874 8.89258 13.1499 9.23008 13.1499 9.64258V18.5001C13.1499 18.9126 13.4874 19.2501 13.8999 19.2501H15.0999C15.5124 19.2501 15.8499 18.9126 15.8499 18.5001V9.64258C15.8499 9.23008 15.5124 8.89258 15.0999 8.89258Z" stroke="#C5C5C5" stroke-width="1.5" stroke-linecap="round" stroke-linejoin="round"/>
<path d="M20.5 6.5H19.3C18.8875 6.5 18.55 6.8375 18.55 7.25V18.5C18.55 18.9125 18.8875 19.25 19.3 19.25H20.5C20.9125 19.25 21.25 18.9125 21.25 18.5V7.25C21.25 6.8375 20.9125 6.5 20.5 6.5Z" stroke="#C5C5C5" stroke-width="1.5" stroke-linecap="round" stroke-linejoin="round"/>
</svg>
