<svg width="26" height="26" viewBox="0 0 26 26" fill="none" xmlns="http://www.w3.org/2000/svg">
<path d="M6.33333 21H5.26667C3.7732 21 3.02645 21 2.45603 20.7093C1.95425 20.4537 1.54631 20.0457 1.29065 19.544C1 18.9736 1 18.2268 1 16.7333V10.6C1 9.10653 1 8.35979 1.29065 7.78936C1.54631 7.28759 1.95425 6.87964 2.45603 6.62399C3.02645 6.33333 3.7732 6.33333 5.26667 6.33333H6.33333M6.33333 6.33333V4.2V3.13333C6.33333 2.3866 6.33333 2.01323 6.47865 1.72801C6.60649 1.47713 6.81047 1.27316 7.06135 1.14532C7.34656 1 7.71993 1 8.46667 1H17.5333C18.2801 1 18.6535 1 18.9387 1.14532C19.1896 1.27316 19.3935 1.47713 19.5213 1.72801C19.6667 2.01323 19.6667 2.3866 19.6667 3.13333V4.2V6.33333M6.33333 6.33333H19.6667M19.6667 21H20.7333C22.2268 21 22.9736 21 23.544 20.7093C24.0457 20.4537 24.4537 20.0457 24.7093 19.544C25 18.9736 25 18.2268 25 16.7333V10.6C25 9.10652 25 8.35979 24.7093 7.78936C24.4537 7.28759 24.0457 6.87964 23.544 6.62399C22.9736 6.33333 22.2268 6.33333 20.7333 6.33333H19.6667M6.33333 11.6667H6.34667M8.46667 25H17.5333C18.2801 25 18.6535 25 18.9387 24.8547C19.1896 24.7268 19.3935 24.5229 19.5213 24.272C19.6667 23.9868 19.6667 23.6135 19.6667 22.8667V19.1333C19.6667 18.3865 19.6667 18.0132 19.5213 17.728C19.3935 17.4771 19.1896 17.2732 18.9387 17.1453C18.6535 17 18.2801 17 17.5333 17H8.46667C7.71993 17 7.34656 17 7.06135 17.1453C6.81047 17.2732 6.60649 17.4771 6.47865 17.728C6.33333 18.0132 6.33333 18.3865 6.33333 19.1333V22.8667C6.33333 23.6135 6.33333 23.9868 6.47865 24.272C6.60649 24.5229 6.81047 24.7268 7.06135 24.8547C7.34656 25 7.71993 25 8.46667 25Z" stroke="black" stroke-width="1.5" stroke-linecap="round" stroke-linejoin="round"/>
</svg>
